<svg width="102" height="102" viewBox="0 0 102 102" fill="none" xmlns="http://www.w3.org/2000/svg">
<path d="M101.762 50.9115C101.762 22.7936 78.9824 0 50.8812 0C22.7801 0 0 22.7936 0 50.9115C0 76.3241 18.6095 97.3909 42.9427 101.219V65.6468H30.0283V50.9403H42.9427V39.7162C42.9427 26.9667 50.5361 19.9156 62.1562 19.9156C67.7362 19.9156 73.5462 20.9229 73.5462 20.9229V33.4422H67.1322C60.8044 33.4422 58.8485 37.3562 58.8485 41.3854V50.9403H72.971L70.7275 65.6468H58.8773V101.219C83.2105 97.3909 101.82 76.3241 101.82 50.9115H101.762Z" fill="#012A67"/>
</svg>
