<svg width="103" height="102" viewBox="0 0 103 102" fill="none" xmlns="http://www.w3.org/2000/svg">
<path d="M51.7303 101.82C79.8471 101.82 102.64 79.0268 102.64 50.91C102.64 22.7932 79.8471 0 51.7303 0C23.6135 0 0.820312 22.7932 0.820312 50.91C0.820312 79.0268 23.6135 101.82 51.7303 101.82Z" fill="#012A67"/>
<path d="M67.5325 31.6582C65.6043 31.6582 64.0215 33.2123 64.0215 35.1692C64.0215 37.1262 65.5756 38.6803 67.5325 38.6803C69.4895 38.6803 71.0436 37.1262 71.0436 35.1692C71.0436 33.2123 69.4895 31.6582 67.5325 31.6582Z" fill="white"/>
<path d="M51.9951 36.1475C43.8794 36.1475 37.2891 42.7378 37.2891 50.8535C37.2891 58.9692 43.8794 65.5596 51.9951 65.5596C60.1108 65.5596 66.7012 58.9692 66.7012 50.8535C66.7012 42.7378 60.1108 36.1475 51.9951 36.1475ZM51.9951 60.2642C46.8149 60.2642 42.5844 56.0337 42.5844 50.8535C42.5844 45.6733 46.8149 41.4428 51.9951 41.4428C57.1753 41.4428 61.4058 45.6733 61.4058 50.8535C61.4058 56.0337 57.1753 60.2642 51.9951 60.2642Z" fill="white"/>
<path d="M63.6489 80.6974H39.8199C29.92 80.6974 21.8906 72.6392 21.8906 62.768V38.9391C21.8906 29.0391 29.92 21.0098 39.8199 21.0098H63.6489C73.5489 21.0098 81.5782 29.0391 81.5782 38.9391V62.768C81.5782 72.668 73.5201 80.6974 63.6489 80.6974ZM39.8199 26.6217C33.0281 26.6217 27.5025 32.1472 27.5025 38.9391V62.768C27.5025 69.5599 33.0281 75.0854 39.8199 75.0854H63.6489C70.4407 75.0854 75.9663 69.5599 75.9663 62.768V38.9391C75.9663 32.1472 70.4407 26.6217 63.6489 26.6217H39.8199Z" fill="white"/>
</svg>
