<svg width="54" height="61" viewBox="0 0 54 61" fill="none" xmlns="http://www.w3.org/2000/svg">
<path d="M29.0599 47.9757V45.0167C29.0599 42.7702 29.5392 40.7062 30.4977 38.825C31.4747 36.9254 32.8848 35.4094 34.7281 34.277C36.5899 33.1263 38.8571 32.551 41.53 32.551C44.2396 32.551 46.5161 33.1172 48.3594 34.2496C50.2212 35.382 51.6221 36.898 52.5622 38.7976C53.5207 40.6788 54 42.7519 54 45.0167V47.9757C54 50.2222 53.5207 52.2953 52.5622 54.1948C51.6037 56.0761 50.1936 57.583 48.3318 58.7154C46.4701 59.8661 44.2028 60.4414 41.53 60.4414C38.8203 60.4414 36.5438 59.8661 34.7005 58.7154C32.8571 57.583 31.4562 56.0761 30.4977 54.1948C29.5392 52.2953 29.0599 50.2222 29.0599 47.9757ZM37.106 45.0167V47.9757C37.106 49.2725 37.4194 50.4962 38.0461 51.6469C38.6912 52.7976 39.8525 53.3729 41.53 53.3729C43.2074 53.3729 44.3502 52.8067 44.9585 51.6743C45.5853 50.5419 45.8986 49.309 45.8986 47.9757V45.0167C45.8986 43.6834 45.6037 42.4414 45.0138 41.2907C44.424 40.14 43.2627 39.5647 41.53 39.5647C39.871 39.5647 38.7189 40.14 38.0737 41.2907C37.4286 42.4414 37.106 43.6834 37.106 45.0167ZM0 15.8661V12.9072C0 10.6423 0.48848 8.56926 1.46544 6.68798C2.4424 4.78843 3.85253 3.27246 5.69585 2.14004C7.5576 1.00762 9.80645 0.441406 12.4424 0.441406C15.1705 0.441406 17.4562 1.00762 19.2995 2.14004C21.1429 3.27246 22.5438 4.78843 23.5023 6.68798C24.4608 8.56926 24.9401 10.6423 24.9401 12.9072V15.8661C24.9401 18.1309 24.4516 20.204 23.4747 22.0852C22.5161 23.9665 21.106 25.4734 19.2442 26.6058C17.4009 27.7199 15.1336 28.277 12.4424 28.277C9.75115 28.277 7.47465 27.7108 5.6129 26.5784C3.76959 25.4277 2.36866 23.9209 1.41014 22.0578C0.470046 20.1766 0 18.1126 0 15.8661ZM8.10138 12.9072V15.8661C8.10138 17.1994 8.41475 18.4323 9.04148 19.5647C9.68664 20.6971 10.8203 21.2633 12.4424 21.2633C14.1382 21.2633 15.2903 20.6971 15.8986 19.5647C16.5253 18.4323 16.8387 17.1994 16.8387 15.8661V12.9072C16.8387 11.5738 16.5438 10.3318 15.9539 9.18113C15.3641 8.03045 14.1935 7.4551 12.4424 7.4551C10.8018 7.4551 9.6682 8.03958 9.04148 9.20853C8.41475 10.3775 8.10138 11.6104 8.10138 12.9072ZM3.64977 58.4962L42.5807 2.38661H49.8249L10.894 58.4962H3.64977Z" fill="white"/>
</svg>
