<svg width="89" height="66" viewBox="0 0 89 66" fill="none" xmlns="http://www.w3.org/2000/svg">
<path fill-rule="evenodd" clip-rule="evenodd" d="M52.1316 8.42668C50.4107 10.2616 49.3758 12.9359 49.6118 16.2646C50.0828 22.9174 54.947 27.4414 59.493 27.4414C64.0366 27.4414 68.8949 22.9183 69.3745 16.2618C69.8324 9.92197 65.4731 5.44141 59.493 5.44141C56.4151 5.44141 53.8589 6.58496 52.1316 8.42668ZM48.4846 5.00629C51.2278 2.08129 55.1404 0.441406 59.493 0.441406C68.3741 0.441406 75.0285 7.38356 74.3616 16.621C73.7424 25.2158 67.287 32.4414 59.493 32.4414C51.7017 32.4414 45.2334 25.2203 44.6243 16.6182M48.4846 5.00629C45.7351 7.93799 44.2979 12.0139 44.6243 16.6182L48.4846 5.00629Z" fill="white"/>
<path fill-rule="evenodd" clip-rule="evenodd" d="M30.1533 59.2258C33.4779 45.8784 46.6161 39.4414 59.4928 39.4414C72.3484 39.4414 85.5122 45.6738 88.8365 59.2356C89.5186 62.0145 87.7912 65.4414 84.2109 65.4414H34.7765C31.2045 65.4414 29.4567 62.0212 30.1531 59.2266M59.4928 44.4414C47.9309 44.4414 37.5681 50.1429 35.0049 60.4349L35.0047 60.4358C35.0042 60.4377 35.0038 60.4395 35.0033 60.4414H83.9838C83.9829 60.4369 83.9818 60.4323 83.9807 60.4275L83.9803 60.426C81.4171 49.9691 71.0797 44.4414 59.4928 44.4414Z" fill="white"/>
<path fill-rule="evenodd" clip-rule="evenodd" d="M16.6118 19.6286C16.2667 14.7473 19.5619 11.4414 24.0556 11.4414L16.6118 19.6286ZM11.6243 19.9815C11.0733 12.1917 16.6768 6.44141 24.0556 6.44141C31.4508 6.44141 37.0385 12.3252 36.4866 19.9848C35.9791 27.0293 30.6207 33.1914 24.0556 33.1914C17.4929 33.1914 12.1235 27.0336 11.6243 19.9815ZM24.0556 11.4414C28.5329 11.4414 31.8439 14.8464 31.4995 19.6255L24.0556 11.4414ZM31.4995 19.6255C31.1296 24.761 27.3454 28.1914 24.0556 28.1914L31.4995 19.6255ZM24.0556 28.1914C20.7633 28.1914 16.9752 24.7602 16.6118 19.6286L24.0556 28.1914Z" fill="white"/>
<path fill-rule="evenodd" clip-rule="evenodd" d="M0.13279 53.8523C2.86677 42.8837 13.6484 37.6694 24.0554 37.6694C28.2506 37.6694 32.3577 38.3017 36.1593 40.0435C37.4145 40.6186 37.9659 42.1024 37.3907 43.3576C36.8156 44.6129 35.3318 45.1642 34.0766 44.5891C31.1094 43.2296 27.7616 42.6694 24.0554 42.6694C15.2029 42.6694 7.38063 46.9152 5.15331 54.4413H25.3679C26.7487 54.4413 27.8679 55.5606 27.8679 56.9413C27.8679 58.322 26.7487 59.4413 25.3679 59.4413H4.31545C1.06749 59.4413 -0.48171 56.3326 0.131934 53.8557L0.13279 53.8523Z" fill="white"/>
</svg>
