<svg width="36" height="39" viewBox="0 0 36 39" fill="none" xmlns="http://www.w3.org/2000/svg">
<path id="Vector" d="M35.3636 15.7487C31.9678 15.7566 28.6553 14.7324 25.894 12.8209V26.1522C25.8931 28.6212 25.1127 31.0312 23.6572 33.0598C22.2018 35.0884 20.1406 36.6389 17.7493 37.5041C15.358 38.3692 12.7505 38.5077 10.2756 37.9011C7.80074 37.2945 5.57633 35.9716 3.89984 34.1094C2.22336 32.2472 1.17472 29.9344 0.894131 27.4802C0.613544 25.0261 1.11439 22.5476 2.32969 20.3762C3.545 18.2048 5.41684 16.4439 7.69492 15.329C9.973 14.2142 12.5487 13.7985 15.0777 14.1375V20.8426C13.9205 20.4906 12.6778 20.5012 11.5271 20.8729C10.3764 21.2447 9.37665 21.9585 8.67052 22.9125C7.96439 23.8665 7.58802 25.0119 7.59517 26.1851C7.60232 27.3583 7.99261 28.4993 8.71031 29.4452C9.42801 30.3911 10.4364 31.0934 11.5915 31.452C12.7466 31.8106 13.9894 31.8071 15.1423 31.4419C16.2952 31.0767 17.2993 30.3686 18.0112 29.4186C18.7231 28.4686 19.1064 27.3254 19.1064 26.1522V0.0909424H25.894C25.8893 0.645271 25.9374 1.19884 26.0375 1.74466C26.2734 2.96312 26.7638 4.12224 27.4788 5.15112C28.1938 6.17999 29.1183 7.057 30.1957 7.7285C31.7287 8.70871 33.5259 9.23117 35.3636 9.23079V15.7487Z" fill="white"/>
</svg>
