<svg width="103" height="102" viewBox="0 0 103 102" fill="none" xmlns="http://www.w3.org/2000/svg">
<path d="M90.048 84.2222C108.446 62.9607 106.124 30.8105 84.8628 12.4127C63.6013 -5.98513 31.4511 -3.66366 13.0533 17.5978C-5.34451 38.8593 -3.02303 71.0095 18.2385 89.4073C39.4999 107.805 71.6502 105.484 90.048 84.2222Z" fill="#012A67"/>
<path d="M24.0496 79.7301L28.3088 63.902C25.8914 59.5564 24.6539 54.6929 24.6539 49.7718C24.6539 33.6558 37.7769 20.5328 53.8929 20.5328C70.0089 20.5328 83.1319 33.6558 83.1319 49.7718C83.1319 65.8877 70.0089 79.0107 53.8929 79.0107C49.0581 79.0107 44.2809 77.802 39.9929 75.471L24.0784 79.7301H24.0496ZM40.7699 69.5426L41.7772 70.1469C45.4608 72.3341 49.6337 73.4852 53.8929 73.4852C66.9584 73.4852 77.6064 62.8372 77.6064 49.7718C77.6064 36.7063 66.9584 26.0582 53.8929 26.0582C40.8275 26.0582 30.1794 36.7063 30.1794 49.7718C30.1794 54.0886 31.3881 58.3477 33.6616 62.0602L34.266 63.0674L31.9061 71.9025L40.7987 69.5138L40.7699 69.5426Z" fill="white"/>
<path fill-rule="evenodd" clip-rule="evenodd" d="M64.7415 53.8294C63.5328 53.11 61.9788 52.3042 60.5399 52.8798C59.4463 53.3115 58.7556 55.0381 58.0649 55.9015C57.6908 56.362 57.2591 56.4195 56.7123 56.1893C52.6258 54.5489 49.4889 51.8437 47.2442 48.0737C46.8701 47.4982 46.9276 47.0377 47.3881 46.491C48.0788 45.6852 48.9134 44.793 49.1148 43.6994C49.2875 42.6059 48.7982 41.3684 48.3378 40.3899C47.7622 39.1525 47.1291 37.397 45.8916 36.7063C44.7693 36.0732 43.2728 36.4185 42.2655 37.2531C40.5388 38.6632 39.6755 40.8792 39.7042 43.0951C39.7042 43.7282 39.7906 44.3325 39.9345 44.9369C40.2798 46.3758 40.9705 47.7572 41.7187 49.0235C42.2943 50.0019 42.8987 50.9517 43.5606 51.8438C45.7477 54.808 48.4529 57.398 51.6185 59.3261C53.2014 60.2758 54.8705 61.1392 56.626 61.7148C58.5829 62.3767 60.3384 63.0386 62.468 62.6357C64.684 62.2041 66.8712 60.8514 67.7633 58.693C68.0223 58.0599 68.1662 57.3405 68.0223 56.6786C67.7057 55.2972 65.8351 54.4626 64.7128 53.8007L64.7415 53.8294Z" fill="white"/>
</svg>
